<svg width="128" height="125" viewBox="0 0 128 125" fill="none" xmlns="http://www.w3.org/2000/svg">
<g filter="url(#filter0_d_20_7123)">
<rect x="4" width="120" height="117" rx="30" fill="url(#paint0_linear_20_7123)"/>
<path d="M89.9995 42.8125C89.7012 42.9532 89.4336 43.1515 89.2123 43.396C88.9909 43.6405 88.8201 43.9264 88.7097 44.2372C88.5993 44.548 88.5515 44.8776 88.5691 45.207C88.5867 45.5363 88.6692 45.859 88.812 46.1563C91.7349 52.2756 92.2935 59.2591 90.3807 65.7653C88.468 72.2715 84.2186 77.8415 78.449 81.4053C72.6794 84.9691 65.7964 86.2753 59.1223 85.0731C52.4482 83.8709 46.4536 80.2451 42.2901 74.8921C38.1267 69.539 36.088 62.8364 36.5656 56.0717C37.0433 49.307 40.0036 42.9574 44.878 38.2425C49.7523 33.5277 56.1969 30.7802 62.9738 30.5277C69.7506 30.2753 76.3817 32.5358 81.5933 36.875L74.4683 44C70.9237 41.3866 66.5241 40.2056 62.1472 40.6927C57.7703 41.1799 53.738 43.2993 50.8548 46.6282C47.9716 49.9571 46.4495 54.2507 46.5922 58.6523C46.7349 63.0538 48.5318 67.2398 51.6245 70.375C54.1324 72.882 57.3427 74.568 60.8302 75.2097C64.3177 75.8513 67.9179 75.4183 71.1538 73.9681C74.3898 72.5179 77.1088 70.1188 78.9507 67.0886C80.7927 64.0585 81.6706 60.5403 81.4683 57C81.4524 56.6729 81.3716 56.3522 81.2305 56.0566C81.0894 55.761 80.891 55.4965 80.6467 55.2784C80.4024 55.0602 80.1171 54.8929 79.8075 54.7861C79.4979 54.6793 79.1701 54.6352 78.8433 54.6563C78.5148 54.6723 78.1928 54.7529 77.8956 54.8936C77.5983 55.0343 77.3318 55.2322 77.1112 55.476C76.8906 55.7199 76.7202 56.0048 76.6099 56.3146C76.4996 56.6244 76.4515 56.9529 76.4683 57.2813C76.604 59.5981 76.092 61.9069 74.9897 63.9492C73.8874 65.9915 72.2383 67.6866 70.2271 68.8446C68.2159 70.0027 65.9221 70.578 63.6024 70.5061C61.2827 70.4342 59.0289 69.7179 57.0933 68.4375L64.5933 60.9375L76.3745 49.1563L95.7808 29.7813C96.1794 29.2955 96.3832 28.6789 96.3524 28.0512C96.3215 27.4236 96.0584 26.8299 95.614 26.3855C95.1697 25.9412 94.5759 25.678 93.9483 25.6472C93.3207 25.6164 92.704 25.8201 92.2183 26.2188L85.1558 33.3125C78.9364 27.9888 70.937 25.2084 62.7566 25.5271C54.5761 25.8457 46.8172 29.2399 41.0308 35.0313C38.0091 38.0445 35.6117 41.6244 33.9759 45.5658C32.3401 49.5072 31.498 53.7327 31.498 58C31.498 62.2674 32.3401 66.4928 33.9759 70.4342C35.6117 74.3756 38.0091 77.9555 41.0308 80.9688C44.0441 83.9905 47.624 86.3879 51.5653 88.0237C55.5067 89.6595 59.7322 90.5015 63.9995 90.5015C68.2669 90.5015 72.4923 89.6595 76.4337 88.0237C80.3751 86.3879 83.955 83.9905 86.9683 80.9688C91.7215 76.2212 94.8866 70.1174 96.0282 63.4971C97.1699 56.8767 96.2319 50.0653 93.3433 44C93.2026 43.7017 93.0044 43.4341 92.7598 43.2127C92.5153 42.9914 92.2294 42.8206 91.9186 42.7102C91.6078 42.5998 91.2782 42.552 90.9489 42.5696C90.6195 42.5872 90.2969 42.6697 89.9995 42.8125Z" fill="white"/>
</g>
<defs>
<filter id="filter0_d_20_7123" x="0" y="0" width="128" height="125" filterUnits="userSpaceOnUse" color-interpolation-filters="sRGB">
<feFlood flood-opacity="0" result="BackgroundImageFix"/>
<feColorMatrix in="SourceAlpha" type="matrix" values="0 0 0 0 0 0 0 0 0 0 0 0 0 0 0 0 0 0 127 0" result="hardAlpha"/>
<feOffset dy="4"/>
<feGaussianBlur stdDeviation="2"/>
<feComposite in2="hardAlpha" operator="out"/>
<feColorMatrix type="matrix" values="0 0 0 0 0 0 0 0 0 0 0 0 0 0 0 0 0 0 0.25 0"/>
<feBlend mode="normal" in2="BackgroundImageFix" result="effect1_dropShadow_20_7123"/>
<feBlend mode="normal" in="SourceGraphic" in2="effect1_dropShadow_20_7123" result="shape"/>
</filter>
<linearGradient id="paint0_linear_20_7123" x1="-39.8818" y1="-37.6589" x2="157.009" y2="-5.01828" gradientUnits="userSpaceOnUse">
<stop offset="0.0963806" stop-color="#A2FBFF"/>
<stop offset="0.550589" stop-color="#CCD0FF"/>
<stop offset="1" stop-color="#D1B2BE"/>
</linearGradient>
</defs>
</svg>
